<svg xmlns="http://www.w3.org/2000/svg" viewBox="0 0 1374.53478 507.13592"><title>teya</title><path d="M982.13743,356.85615a91.95092,91.95092,0,0,1-19.99975,25.2675c-26.16034,23.74968-57.14207,25.35679-66.33837,25.53537-5.08922.26784-33.74952.71427-60.44561-15.62478a102.38719,102.38719,0,0,1-19.464-15.62479c-20.26759-20.714-30.35672-47.1422-30.35672-78.8382,0-31.24957,10.08913-57.23136,30.08888-78.39178,20.17827-20.89257,45.71367-31.51743,77.14182-31.51743,29.91031,0,54.285,10.80343,73.30255,32.23171,19.28543,21.339,28.74956,47.58862,28.74956,78.12393a129.784,129.784,0,0,1-1.60716,18.839H831.693c2.32138,11.51769,6.87492,21.16044,13.57125,28.74962a53.15836,53.15836,0,0,0,8.74987,8.0356c15.357,11.24985,43.57083,18.66045,68.83833,6.69634a70.14232,70.14232,0,0,0,25.08892-20.98186c11.69624,5.80349,23.39249,11.78557,34.196,17.49977ZM831.42522,279.89294H950.70933c-3.03569-17.05335-9.64271-29.73174-20.44617-38.39234a58.16425,58.16425,0,0,0-37.49949-12.94625q-24.46393,0-40.62444,13.8391C841.33583,251.58975,834.46091,264.26815,831.42522,279.89294Z" transform="translate(-31.88262 -30.43204)" fill="#151515" fill-rule="evenodd"/><path d="M31.88262,135.78774A105.321,105.321,0,0,1,137.23832,30.432H433.21641a105.321,105.321,0,0,1,105.35573,105.3557V432.21226A105.321,105.321,0,0,1,433.21644,537.568H137.23835A105.321,105.321,0,0,1,31.88264,432.21226ZM222.505,291.14276a214.75678,214.75678,0,0,1,43.928-82.3203,192.44205,192.44205,0,0,0-129.64108-50.08859v87.76666A104.938,104.938,0,0,1,222.505,291.14276ZM433.395,158.466A192.04043,192.04043,0,0,0,241.16543,350.87408v58.21347h87.94523v-58.2135c0-57.40992,46.60651-104.37356,104.2843-104.37356Z" transform="translate(-31.88262 -30.43204)" fill="#151515" fill-rule="evenodd"/><path d="M1362.75726,194.53694h43.66014V401.23053h-43.66014V377.30229a100.77928,100.77928,0,0,1-24.10681,17.49977,104.07,104.07,0,0,1-46.42794,11.96412c-27.76745,0-51.42784-10.53556-71.15969-31.696s-29.37462-46.69578-29.37462-77.0525c0-30.53531,9.82129-56.33852,29.37462-77.23109,10.8034-11.51769,22.94607-19.99972,36.51738-25.08895a92.07772,92.07772,0,0,1,34.64242-6.16062c9.01772,0,29.196,0,50.08858,12.14269a99.57452,99.57452,0,0,1,20.714,16.78549c-.2679-8.21417-.2679-16.07121-.2679-23.92824Zm-109.552,150.62294c12.14266,12.67841,27.321,18.839,45.71361,18.839s33.571-6.16062,45.71362-18.839,18.12479-28.3032,18.12479-47.32078c0-19.10688-5.982-34.73167-18.12479-47.41007s-27.321-18.839-45.71362-18.839-33.571,6.16063-45.71361,18.839-18.1248,28.30319-18.1248,47.41007C1235.08044,316.85668,1241.06246,332.48147,1253.20524,345.15988Z" transform="translate(-31.88262 -30.43204)" fill="#151515" fill-rule="evenodd"/><path d="M667.94533,284a154.92512,154.92512,0,0,0,0,15.89263c1.16069,27.49961,2.23212,51.24929,18.12475,72.40973,22.4997,29.821,59.28492,34.46382,62.49914,34.91024,5.26781.44642,9.64271.44642,12.857.44642H772.676V363.731H762.319c-13.57125-.17858-22.05328-4.99994-25.71392-7.58918-18.57116-12.41054-21.78544-35.80309-22.76755-41.33871a122.413,122.413,0,0,1-1.16068-12.67841c-.44643-7.58918-.44643-13.74981-.44643-18.12474V230.87573h60.44562V188.10846H712.23047V125.78788a261.83333,261.83333,0,0,0-44.553,16.60692V284Z" transform="translate(-31.88262 -30.43204)" fill="#151515"/><path d="M1149.81375,190.25128c-17.41048,50.535-34.91022,101.3379-52.32069,151.96222-13.30341-28.3032-26.42819-57.94563-39.28518-89.46306-8.74992-21.42828-16.51763-42.053-24.10681-62.49914H984.90534c20.89259,49.82075,37.41022,89.64164,49.82079,118.56981,8.74992,19.28545,17.49973,38.83875,26.24966,58.21347a65.90915,65.90915,0,0,1,4.375,11.96411c1.60717,5.71421,3.39285,13.03555,2.05359,21.60686-2.58927,14.19623-13.5712,22.67826-18.21406,26.16035a56.0023,56.0023,0,0,1-25.714,11.07127v46.16009a106.16094,106.16094,0,0,0,28.9282-7.58918c11.0713-4.55351,25.98176-13.12483,42.32087-31.96384,15.80331-18.12474,25.26756-36.78522,41.07087-77.23108,17.05331-43.66011,25.08892-71.249,43.92792-126.42685,7.32129-21.60684,13.5712-39.28518,17.67838-50.80287Z" transform="translate(-31.88262 -30.43204)" fill="#151515"/><path d="M433.395,246.50051c-57.67779,0-104.2843,46.96365-104.2843,104.37357v58.21347H241.16546v-58.2135A192.04042,192.04042,0,0,1,433.395,158.466Z" transform="translate(-31.88262 -30.43204)" fill="#dde048"/><path d="M136.7919,246.50051V158.73385A192.44212,192.44212,0,0,1,266.433,208.82245a214.75686,214.75686,0,0,0-43.928,82.32031A104.70476,104.70476,0,0,0,136.7919,246.50051Z" transform="translate(-31.88262 -30.43204)" fill="#fff"/></svg>