<?xml version="1.0" standalone="no"?>
<!DOCTYPE svg PUBLIC "-//W3C//DTD SVG 20010904//EN"
 "http://www.w3.org/TR/2001/REC-SVG-20010904/DTD/svg10.dtd">
<svg version="1.0" xmlns="http://www.w3.org/2000/svg"
 width="400.000000pt" height="400.000000pt" viewBox="0 0 400.000000 400.000000"
 preserveAspectRatio="xMidYMid meet">
<metadata>
Created by potrace 1.14, written by Peter Selinger 2001-2017
</metadata>
<g transform="translate(0.000000,400.000000) scale(0.100000,-0.100000)"
fill="#000000" stroke="none">
<path d="M160 2861 c0 -54 2 -60 23 -63 l22 -3 3 -237 2 -238 60 0 60 0 0 90
0 90 53 0 53 0 31 -52 c17 -29 40 -70 49 -90 l18 -38 64 0 c61 0 63 1 57 23
-7 21 -58 120 -86 165 -11 18 -9 23 20 47 91 78 103 209 25 295 -54 59 -99 70
-291 70 l-163 0 0 -59z m349 -87 c41 -34 43 -89 5 -125 -22 -20 -38 -24 -105
-28 l-79 -3 0 91 0 91 74 0 c66 0 78 -3 105 -26z"/>
<path d="M752 2623 l3 -298 63 -3 62 -3 0 301 0 300 -65 0 -65 0 2 -297z"/>
<path d="M1183 2906 c-132 -43 -216 -153 -216 -286 -1 -113 60 -211 168 -268
43 -23 62 -27 135 -27 75 0 91 3 138 29 50 28 122 96 122 115 0 5 -23 18 -51
31 l-51 22 -27 -26 c-73 -70 -183 -73 -254 -7 -42 38 -57 73 -57 131 0 79 37
133 112 165 70 29 139 15 199 -41 l25 -24 52 21 c29 12 52 27 52 33 0 22 -84
95 -134 117 -61 27 -157 34 -213 15z"/>
<path d="M1582 2858 c3 -57 5 -63 26 -66 l22 -3 0 -235 0 -234 230 0 229 0
-23 63 -24 62 -146 3 -147 3 3 50 3 51 125 1 125 2 3 63 3 62 -131 0 -130 0 0
55 0 55 165 0 165 0 0 65 0 65 -250 0 -251 0 3 -62z"/>
<path d="M3460 2865 c-74 -34 -136 -56 -173 -60 -31 -4 -60 -12 -64 -18 -4 -6
4 -8 20 -5 15 3 28 1 29 -4 2 -5 21 -3 43 6 22 8 92 22 155 31 130 18 143 21
136 33 -3 5 -38 3 -78 -5 -39 -7 -76 -12 -82 -10 -5 2 25 16 67 32 43 16 77
35 77 42 0 18 -1 18 -130 -42z"/>
<path d="M2325 2774 c-5 -1 -22 -5 -37 -8 -33 -7 -82 -48 -119 -100 -49 -67
-36 -133 34 -172 15 -9 16 -15 6 -41 -21 -63 35 -122 137 -143 89 -19 205 12
239 63 10 16 29 27 53 31 49 7 110 50 118 81 27 109 -117 246 -226 215 -30 -9
-37 -7 -60 14 -40 37 -114 68 -145 60z m83 -28 c15 -8 37 -25 49 -38 l23 -24
-45 -37 c-24 -20 -52 -37 -63 -37 -24 0 -86 -42 -119 -80 -31 -37 -37 -37 -74
-1 -36 37 -37 70 -3 128 50 86 159 127 232 89z m251 -86 c43 -30 91 -106 91
-143 0 -37 -44 -82 -95 -96 -45 -12 -55 -8 -55 23 0 45 -94 149 -146 162 -34
9 -30 19 19 55 37 27 48 30 98 27 37 -3 66 -12 88 -28z m-167 -89 c53 -33 98
-102 98 -148 0 -66 -121 -125 -223 -108 -140 23 -181 92 -114 191 62 94 154
119 239 65z"/>
<path d="M2342 2540 c-40 -24 -73 -77 -70 -109 6 -49 98 -88 171 -72 87 20
114 66 77 127 -44 70 -115 92 -178 54z m139 -26 c15 -15 33 -40 38 -56 9 -27
7 -33 -18 -59 -27 -26 -36 -29 -95 -29 -58 0 -69 3 -98 29 -30 27 -31 30 -19
60 8 17 29 45 49 62 30 27 41 30 75 26 24 -3 50 -16 68 -33z"/>
<path d="M3235 2760 c-3 -5 1 -10 9 -10 8 0 18 5 21 10 3 6 -1 10 -9 10 -8 0
-18 -4 -21 -10z"/>
<path d="M3182 2670 c-79 -85 -90 -129 -47 -176 l26 -29 -21 31 c-30 44 -20
83 40 149 41 45 78 97 68 94 -2 0 -32 -32 -66 -69z"/>
<path d="M3201 2638 c-22 -33 -41 -72 -41 -85 0 -32 25 -79 47 -87 14 -6 13
-2 -5 17 -32 34 -28 79 13 154 20 34 34 63 32 63 -2 0 -23 -28 -46 -62z"/>
<path d="M3243 2643 c-12 -26 -24 -58 -27 -70 -9 -29 17 -89 46 -104 21 -11
21 -10 -4 16 -34 33 -35 65 -8 142 25 70 20 80 -7 16z"/>
<path d="M3521 2561 c29 -24 21 -43 -31 -78 -57 -39 -205 -68 -295 -58 -42 4
-46 3 -25 -6 38 -17 213 -5 292 20 119 38 163 97 93 127 -48 20 -62 18 -34 -5z"/>
<path d="M3576 2481 c-59 -65 -310 -112 -408 -77 -21 8 -38 10 -38 7 0 -21 81
-97 124 -117 135 -63 289 6 331 150 17 57 15 64 -9 37z"/>
<path d="M3477 2282 c-47 -31 -135 -41 -193 -21 -45 15 -67 13 -108 -8 -51
-26 -9 -37 118 -29 171 10 338 49 321 76 -13 21 -98 10 -138 -18z"/>
<path d="M1154 2231 c-2 -2 -4 -31 -4 -63 0 -55 1 -58 25 -58 l25 0 0 -235 0
-235 60 0 60 0 0 96 c0 93 1 98 31 136 18 21 35 36 40 31 5 -5 36 -60 69 -123
34 -63 69 -121 78 -127 9 -7 42 -13 75 -13 l59 0 -97 186 c-53 102 -94 191
-92 197 3 7 44 56 91 109 47 53 86 98 86 100 0 2 -34 2 -76 1 l-77 -1 -43 -49
c-23 -26 -62 -71 -86 -100 -24 -29 -46 -52 -50 -53 -4 0 -9 45 -10 101 l-3
101 -78 1 c-43 1 -81 0 -83 -2z"/>
<path d="M2418 2232 l-78 -3 0 -59 c0 -53 2 -60 20 -60 19 0 20 -7 20 -235 l0
-235 60 0 60 0 0 92 c0 87 1 93 33 134 17 24 35 44 39 44 3 0 34 -53 68 -117
34 -65 69 -126 78 -135 11 -14 31 -18 79 -18 l65 0 -20 33 c-11 17 -56 102
-100 187 l-81 156 89 104 c50 57 90 106 90 109 0 3 -33 5 -74 3 l-75 -4 -88
-99 c-48 -54 -91 -99 -95 -99 -4 0 -9 46 -10 103 l-3 102 -77 -3z"/>
<path d="M2968 2232 l-58 -3 0 -295 0 -295 60 3 61 3 0 294 c0 161 -2 294 -3
295 -2 0 -29 0 -60 -2z"/>
<path d="M3480 2219 c-58 -10 -148 -22 -200 -26 l-94 -8 -23 -40 c-48 -84 -19
-196 62 -242 32 -18 56 -23 120 -23 94 0 125 -15 125 -60 0 -36 -23 -60 -58
-60 -125 0 -249 -7 -259 -13 -8 -5 -13 -29 -13 -58 l0 -49 150 0 c160 0 201 9
248 53 37 34 52 72 52 130 0 40 -6 63 -22 87 -42 61 -69 74 -171 80 -51 4
-100 10 -110 14 -34 16 -34 86 1 102 9 5 80 11 157 14 l140 5 5 53 c3 30 3 55
0 56 -3 2 -52 -5 -110 -15z"/>
<path d="M1820 1948 c-57 -156 -105 -289 -108 -295 -3 -10 13 -13 60 -13 65 0
65 0 74 33 l10 32 156 3 157 3 12 -36 13 -35 64 0 c57 0 63 2 57 18 -7 17 -87
239 -167 460 l-40 112 -92 0 -93 0 -103 -282z m248 39 c24 -67 46 -130 49
-139 5 -16 -4 -18 -101 -18 -59 0 -106 4 -106 9 0 5 20 65 45 133 26 68 48
129 51 137 8 23 16 6 62 -122z"/>
<path d="M634 1426 c-34 -15 -44 -33 -44 -76 0 -33 14 -46 84 -80 61 -30 70
-64 23 -90 -25 -14 -30 -13 -67 6 -32 18 -41 19 -50 9 -13 -16 27 -51 71 -60
40 -9 101 22 113 58 17 48 -2 79 -69 112 -34 17 -61 38 -63 48 -8 43 53 63 90
30 17 -15 20 -15 34 -1 15 15 14 17 -7 31 -37 23 -81 28 -115 13z"/>
<path d="M2064 1426 c-34 -15 -44 -33 -44 -75 0 -34 20 -53 82 -80 58 -24 72
-56 37 -84 -26 -21 -71 -17 -99 8 -15 13 -19 14 -29 1 -9 -11 -7 -18 14 -34
40 -32 79 -36 122 -15 79 38 67 118 -24 158 -56 25 -73 47 -56 74 14 23 50 25
79 6 25 -16 44 -13 44 8 0 32 -81 53 -126 33z"/>
<path d="M2735 1429 c-40 -12 -58 -27 -84 -69 -54 -89 2 -202 112 -226 41 -9
114 31 138 76 25 47 24 114 -2 157 -33 53 -105 80 -164 62z m118 -69 c77 -85
-12 -220 -116 -176 -86 35 -87 170 -2 207 36 15 88 2 118 -31z"/>
<path d="M272 1303 c-71 -175 -67 -163 -45 -163 12 0 25 12 34 33 13 31 17 32
77 35 l63 3 14 -36 c11 -24 22 -35 36 -35 11 0 19 4 17 9 -53 143 -116 281
-129 281 -10 0 -32 -41 -67 -127z m95 -3 l22 -60 -51 0 c-27 0 -48 4 -46 8 2
4 12 31 22 60 11 29 22 52 25 52 4 0 16 -27 28 -60z"/>
<path d="M910 1284 c0 -133 1 -145 18 -142 15 3 17 19 20 146 2 137 2 142 -18
142 -19 0 -20 -6 -20 -146z"/>
<path d="M1184 1408 c-4 -13 -26 -68 -49 -123 -59 -138 -60 -145 -38 -145 12
0 26 13 36 35 16 34 18 35 77 35 60 0 61 0 76 -35 10 -24 21 -35 35 -35 13 0
19 5 16 13 -36 89 -100 245 -108 259 -13 25 -36 23 -45 -4z m55 -115 l21 -53
-51 0 c-57 0 -55 -6 -21 77 9 23 20 39 24 35 3 -4 16 -31 27 -59z"/>
<path d="M1470 1285 c0 -138 1 -145 20 -145 19 0 20 7 20 107 l0 106 80 -106
c44 -59 87 -107 95 -107 13 0 15 24 15 145 0 138 -1 145 -20 145 -18 0 -20 -8
-22 -106 l-3 -105 -78 105 c-44 59 -85 106 -93 106 -11 0 -14 -27 -14 -145z"/>
<path d="M2300 1416 c0 -11 14 -16 48 -18 l47 -3 3 -127 c2 -120 4 -128 22
-128 19 0 20 7 20 130 l0 130 50 0 c38 0 50 4 50 15 0 13 -20 15 -120 15 -98
0 -120 -3 -120 -14z"/>
<path d="M3060 1285 c0 -138 1 -145 20 -145 18 0 20 7 20 66 0 80 7 80 75 -3
33 -41 58 -62 73 -62 12 -1 22 2 22 5 0 3 -20 30 -45 58 -49 58 -53 66 -30 66
9 0 27 11 40 25 33 32 33 75 -1 109 -24 23 -34 26 -100 26 l-74 0 0 -145z
m138 99 c48 -33 16 -84 -54 -84 l-44 0 0 50 0 50 38 0 c21 0 48 -7 60 -16z"/>
<path d="M3400 1285 l0 -145 95 0 c88 0 95 1 95 20 0 18 -7 20 -75 20 l-75 0
0 45 0 45 70 0 c63 0 70 2 70 20 0 18 -7 20 -71 20 l-70 0 3 43 3 42 73 3 c55
2 72 6 72 17 0 12 -18 15 -95 15 l-95 0 0 -145z"/>
</g>
</svg>
